<?xml version="1.0" encoding="UTF-8"?>
<svg version="1.1" viewBox="0 0 2e3 2e3" xmlns="http://www.w3.org/2000/svg">
<defs>
<style>.cls-1, .cls-2 {
        fill: #f6f6f6;;
      }

      .cls-1 {
        fill-rule: evenodd;
      }</style>
<clipPath id="a">
<path d="m1164.5 698.98-0.01 2e-3 -531.47 4e-3v655.04h611.29c-0.1728-3.8439-0.3651-7.6291-0.3359-12.053 0.023-3.4254 0.064-6.8507 0.209-10.274 0.4969-17.71-2.3777-35.41-0.8555-53.146 0.8778-6.5564 1.7583-13.113 2.6328-19.67-3.3459 1.1334-7.137-1.5884-7.5195-7.8887-1.0076 0.3728-2.1456 0.4041-3.3047 0.051-2.9068 2.0593-7.0543 0.4478-8.8691-4.9492-2.9769 6.6382-11.48 4.8603-11.48-5.3496v-6.9531c-0.035 0.074-0.08-0.01-0.1211-0.059-0.02 0.088-0.088 0.021-0.1387-0.037v0.029c0.017 0.1931-0.1743 0.2132-0.1953 0.022 0-0.01 6e-4 -0.01 0-0.018-0.01-0.018-0.01-0.037-0.01-0.055 1e-4 -0.01 1e-4 -0.018 0-0.027 0-0.011-0.01-0.024-0.012-0.037-0.02-0.076-0.047-0.1477-0.074-0.2207-0.025-0.067-0.018-0.051-0.053-0.1269-0.01-0.016-0.013-0.033-0.024-0.049-0.029-0.055-0.03-0.051-0.057-0.096-0.01-0.013-0.014-0.025-0.023-0.039-0.016 0.01-0.025 0.013-0.027 0.014 0 0 0.013-0.013 0.024-0.022-0.051-0.092-0.01-0.055 0.1464-0.1367 0.016-0.01 0.026-0.014 0.031-0.016 0.037-0.012-0.1171 0.1034-0.1777 0.1524v0.01s0-5e-4 0.01 0c0.053-0.033 0.1112-0.06 0.1602-0.098 0 0-0.02-0.02-0.01-0.02 0.01 1e-3 0.01 0.01 0.01 0.02 0.026 0.044 0.052 0.086 0.076 0.1309v-0.082c0-0.029-0.015-0.096-0.025-0.1289-0.01-0.025-0.01-0.049-0.018-0.074-0.01-0.035-0.02-0.07-0.035-0.1035-0.043-0.1-2e-4 -0.169 0.053-0.1777 0.02 0 0.043-4e-4 0.064 0.018-0.01-0.025-0.016-0.05-0.025-0.074-0.015 0-0.027-0.01-0.029-0.049 0-0.019-0.017-0.049 0-0.059 0.075-0.033 0.1158-0.051 0.1406-0.055 0.019 0 0.029-8e-4 0.037 0.018-0.019 0.011-0.052 0.052-0.084 0.09 0.026 2e-4 0.059 7e-4 0.1-0.014 0.01 0-1e-3 -0.017 0-0.027s1e-4 -0.017 0-0.023c3e-4 0-6e-4 0.01 0.01 0.01 0.028 0.069 0.053 0.1377 0.072 0.2109 0 0.022 0.014 0.044 0.014 0.066 0.01 0.052 0.013 0.072 0.016 0.092v-0.3027c0-0.082-0.01-0.164 0-0.2461 2e-4 0-3e-4 0 0-0.012 0.059 0.01 0.1185 0.012 0.1777 0.018v-17.022c0-0.4664-0.018-0.9342 0-1.4003 0.029-0.7253 0.094-1.4475 0.1407-2.1719 0.1217-1.0414 0.1549-1.1757 0.1718-1.8496 9e-4 0.3373 0.012 0.6533 0.1387 0.4824 1.8368-2.4338 3.2699-5.1487 4.9043-7.7227 1.0588 0.058 2.1151 0.1178 3.1738 0.1758 2.2291 0.1225 3.1303 0.5775 3.1895 1.2422 0.2663-1.0571 0.5439-2.1115 0.7695-3.1777 0.6476-3.0602 1.1532-6.1553 1.7227-9.2305 0.4019-2.12 0.3752-2.0552 0.8574-4.2422 0.043-0.194 0.094-0.386 0.1445-0.5781-0.01-0.1417-0.01-0.3017 0.018-0.4707 0.01-0.071 0.1377-0.2449 0.127-0.1738-0.033 0.2176-0.085 0.4299-0.1407 0.6445 0.015 0.3749 0.075 0.5804-0.031 0.1777 0 0.023 0.012 0.043 0.012 0.066 1.7199 9.906 6.4444-6.4355 9.8906-6.5058 0.7953-0.016 1.5222 0.8331 2.1289 3.0722 0.047 0.174 0.094 0.3499 0.1407 0.5235 0.01 0.036 0.019 0.065 0.023 0.1 0.12-0.1873 0.2383-0.3752 0.3633-0.5606 0.4519-0.6699 1.2569-1.6662 1.7246-2.2617 0.8303-1.0299 0.7847-1.0158 1.8672-2.1133 0.2542-0.2577 0.5382-0.4831 0.793-0.7402 0.099-0.1003 0.1521-0.2385 0.2421-0.3457 0.2059-0.2447 0.419-0.4826 0.6289-0.7246 0.027-0.029 0.054-0.057 0.082-0.086 0.014-0.021 0.018-0.026 0.031-0.045-0.018-5.2506-0.031-10.501-0.072-15.752 0.8915-40.074-0.1332-3.6317 0.7519-23.18 0.1722-3.801 0.2882-7.604 0.4238-11.406 0.071-1.9953-1.3094-7.2984 0.1954-5.9863 2.5438 2.218 4.2067 12.754 3.7324 9.4121-0.8188-5.7686-3.1871-11.208-4.7813-16.812-1.3038-9.7669-2.8102-19.509-3.9121-29.301-0.5157-4.5853 0.043-9.2295-0.09-13.842-0.3641-12.685-1.5792-25.374-0.2793-38.06 0.9138-5.945 1.8029-11.895 2.7422-17.836-1.6-8.0043-4.0531-16.173-5.5743-22.258-11.15-44.599-9.1149-81.311 0.9766-109.21-9.1088-19.63-18.044-39.338-26.846-59.102-1.3526-0.46437-2.8006-1.2865-4.2832-2.541-0.5417-0.45833-1.1828-0.82021-1.625-1.375-2.3164-2.9051-5.1847-7.1282-6.9414-10.59-0.091-0.17863-0.1761-0.3599-0.2656-0.53906-2.3239 10.836-15.475 10.074-17.377-4.7402-0.3724-2.9003-0.3317-5.83-0.2637-8.7461 0.012-0.52865-0.016-1.0606 0.045-1.5859 0.1305-1.1292 0.3503-2.246 0.5254-3.3691 0.3502-1.3143 0.3153-1.4624 0.3593-1.7383-0.084-0.0131-0.1647-0.0969-0.1797-0.26172v-0.0371c-1e-4 -1e-3 2e-4 -3e-3 0-4e-3 -0.01-0.0202-0.017-0.037-0.023-0.0566 0-0.0101 0-0.0208 0.01-0.0312-0.01-0.038-0.015-0.0751-0.025-0.11329-0.092 0.14081-0.2377 0.21667-0.2656 0.0117-0.07-0.0318-0.1289-0.11603-0.1407-0.25781v-0.18361c-0.061-0.0326-0.1304-0.0312-0.164-0.14649-0.019-0.0786-0.032-0.15923-0.022-0.24023v-0.0371c0-0.0224 0.014-0.0441 0.014-0.0664 0.01-0.0343 0.015-0.07 0.016-0.10547v-0.0566c0-0.0225-6e-4 -0.046 0-0.0684 0.01-0.0177 0.012-0.0274 0.012-0.0371 0.01 0.17819 0.1343-5e-3 0.2363-0.11132-0.016-0.0844-0.022-0.17147-0.022-0.25782 4e-4 -0.0682 0-0.0875 0-0.0918 0 3e-3 -9e-4 0.0112 0.01-0.0527-1e-4 -0.0204-4e-4 -0.0401 0-0.0605 0-0.064 0-0.12831 0.014-0.19141 0.01-0.0171 0.01-0.0337 0.01-0.0508v-0.0312c0-0.0198 0.018-0.039 0.018-0.0586 0-0.0218 0.01-0.0359 0.022-0.0547 0.034-0.11641 0.096-0.18094 0.1621-0.20313 0-9e-3 -8e-4 -0.01 0-0.0215 0-0.042-6e-4 -0.0546-0.018-0.0859 0.034 0.0347 0.068 0.0681 0.1036 0.10156 0.015 3e-3 0.029 7e-3 0.043 0.0137 0.023-0.0125 0.047-0.0248 0.07-0.0371 0.01-0.0306 0.011-0.0628 0.025-0.12696 0-0.0136-4e-4 -0.0242 0.01-0.0332-0.1723 0.0199-0.4225 0.0688-0.2617-0.0273 0.079-0.0473 0.1591-0.0934 0.2383-0.14063 0.025 0.0225 0.044 0.0463 0.068 0.0684 0.04-3e-3 0.079-5e-3 0.1192-8e-3 0-0.0557 0.01-0.11037 0.012-0.16602 0-0.0334 0.018-0.0662 0.018-0.0996 0.01-0.0196 0.01-0.0411 0.01-0.0605 9e-4 -0.0129-2e-4 -0.0241 0-0.0371 5e-4 -2e-3 1e-4 -9e-3 0-0.0117 0.014 0.0331 0.03 0.0648 0.045 0.0976 0.1241 0.27149 0.1336-0.23853 0.2071-0.32422-0.027-0.63553-0.059-1.3018-0.08-1.8418-0.038-0.99088-0.065-1.9834-0.096-2.9746 0.067-2.3154-0.2354-4.5955-0.7695-6.8379-0.5824-1.9822-0.8843-3.9066-0.6016-5.9922 0.07-0.51721 0.2551-1.0115 0.3828-1.5176 0.4078-0.80025 0.8168-1.6001 1.2246-2.4004 0.8189-1.6071 1.5095-2.4316 2.1504-2.9512-7.4083-18.154-14.6-36.398-21.301-54.848-0.8195-2.2562-1.376-4.3893-2.1211-6.6113zm214.33 6e-3c26.955 64.478 57.654 127.38 86.98 190.8 18.195 39.799 20.011 43.846 34.92 76.84v-267.64zm-193.51 86.611c0.012 0.0115 0.026 0.0208 0.037 0.0332v0.01c0.02-6.4e-4 0.04-7.5e-4 0.061-2e-3 7e-4 -0.0117 0-0.0235 0-0.0352-0.034-2e-3 -0.065-4e-3 -0.098-6e-3zm61.361 229.28c-0.01 0.124-0.031 0.1909-0.031 0.2871 0.01 3.9214 1.515 15.589 1.5 11.668-0.014-3.7131-0.6553-7.8121-1.4688-11.955zm-20.312 189.67c-1.5911 3.2937-16.157 9.8035-6.6387 10.127l2.9278 0.1c0.8215-1.3463 1.5721-2.7403 2.3633-4.1074 0.092-0.5295 0.1667-1.0612 0.25-1.5918 0.2407-0.99 0.48-1.9808 0.7207-2.9707 0.1262-0.5188 0.2462-1.0389 0.3769-1.5567zm-11.277 4.6836h0.01c-0.015-0.1064 0.027 0.215 0.025 0.3223 0 0.094-0.01 0.1223-0.01 0.1855-3e-4 -0.1914-4e-4 -0.3878-0.022-0.5078zm232.71 41.723c-0.463 10.276-1.3575 20.536-3.0547 30.861-0.9868 6.0035-3.2827 11.741-4.2832 17.742-0.3441 2.0646 1.5344-3.8961 2.3008-5.8438 1.2563 14.054 1.6481 28.194 1.3848 42.307-0.1 3.2841-0.1496 4.2035-0.1836 6.8906 0 0.3119 0.01-0.6236 0.02-0.9355 1.3762-62.578-18.261-65.739-45.69-47.137 5.4561 28.181 8.2018 36.616 2.4571 20.367-1.8981-6.1089-3.5406-12.278-5.0938-18.467-18.988 13.564-41.314 36.431-63.004 57.289h168.08v-60.684c-18.258-15.236-36.646-30.803-52.936-42.391z" fill="#f00"/>
</clipPath>
</defs>
<path class="cls-1" transform="matrix(3.0308,0,0,2.8351,-1856.8,-1919.1)" d="m957.4 699c180.86-1.705 328.86 143.54 330.57 324.42s-143.54 328.89-324.4 330.6-328.86-143.56-330.57-324.42 143.54-328.89 324.4-330.59zm-19.644 158.82c96.484-9.858 172.02 55.126 185.11 154.39 12.89 97.76-57.85 183.25-156.35 187.76s-181.01-71.72-186.53-170.16c-5.458-97.394 54.295-161.41 157.77-171.99zm205.24-26.823c7.07-6.094 13.79-12.443 20.29-19.141 7.5891-7.832 14.762-16.057 21.49-24.64 322.06 68.472 389.01 529.22 29.42 446.32-4.08-2.05-8.99-4.51-13.47-6.76-12.888-6.3818-26.735-13.666-37.73-19.78 47.58-68.21 68.11-152.08 52-234-10.41-52.916-35.48-101.62-72-142z" clip-path="url(#a)"/>
<ellipse class="cls-2" cx="1038.1" cy="982.71" rx="259.14" ry="242.41" stroke-width="2.9313"/>
</svg>
